<?xml version="1.0" encoding="UTF-8"?>
<!DOCTYPE svg PUBLIC "-//W3C//DTD SVG 1.1//EN" "http://www.w3.org/Graphics/SVG/1.1/DTD/svg11.dtd">
<!-- Creator: CorelDRAW 2018 (64 Bit Versão de avaliação) -->
<svg xmlns="http://www.w3.org/2000/svg" xml:space="preserve" width="134.361mm" height="3mm" version="1.1" style="shape-rendering:geometricPrecision; text-rendering:geometricPrecision; image-rendering:optimizeQuality; fill-rule:evenodd; clip-rule:evenodd"
viewBox="0 0 13805.5 308.25"
 xmlns:xlink="http://www.w3.org/1999/xlink">
 <defs>
  <style type="text/css">
   <![CDATA[
    .fil0 {fill:white}
   ]]>
  </style>
 </defs>
 <g id="Camada_x0020_1">
  <metadata id="CorelCorpID_0Corel-Layer"/>
  <g id="_1966958295552">
   <polygon class="fil0" points="619.11,308.25 309.54,0 -0,308.25 "/>
   <polygon class="fil0" points="1247.02,308.25 937.46,0 627.91,308.25 "/>
   <polygon class="fil0" points="1874.94,308.25 1565.38,0 1255.83,308.25 "/>
   <polygon class="fil0" points="2502.86,308.25 2193.31,0 1883.76,308.25 "/>
   <polygon class="fil0" points="3130.78,308.25 2821.23,0 2511.68,308.25 "/>
   <polygon class="fil0" points="3758.7,308.25 3449.15,0 3139.6,308.25 "/>
   <polygon class="fil0" points="4386.66,308.25 4077.08,0 3767.54,308.25 "/>
   <polygon class="fil0" points="5014.57,308.25 4705.02,0 4395.46,308.25 "/>
   <polygon class="fil0" points="5642.48,308.25 5332.93,0 5023.37,308.25 "/>
   <polygon class="fil0" points="6270.4,308.25 5960.84,0 5651.29,308.25 "/>
   <polygon class="fil0" points="6898.31,308.25 6588.75,0 6279.21,308.25 "/>
   <polygon class="fil0" points="7526.27,308.25 7216.69,0 6907.16,308.25 "/>
   <polygon class="fil0" points="8154.21,308.25 7844.65,0 7535.09,308.25 "/>
   <polygon class="fil0" points="8782.12,308.25 8472.56,0 8163.01,308.25 "/>
   <polygon class="fil0" points="9410.03,308.25 9100.47,0 8790.93,308.25 "/>
   <polygon class="fil0" points="10037.94,308.25 9728.39,0 9418.84,308.25 "/>
   <polygon class="fil0" points="10665.86,308.25 10356.31,0 10046.76,308.25 "/>
   <polygon class="fil0" points="11293.79,308.25 10984.22,0 10674.67,308.25 "/>
   <polygon class="fil0" points="11921.7,308.25 11612.13,0 11302.59,308.25 "/>
   <polygon class="fil0" points="12549.67,308.25 12240.12,0 11930.57,308.25 "/>
   <polygon class="fil0" points="13177.59,308.25 12868.03,0 12558.48,308.25 "/>
   <polygon class="fil0" points="13805.5,308.25 13495.94,0 13186.4,308.25 "/>
  </g>
 </g>
</svg>
