<?xml version="1.0" encoding="UTF-8"?>
<!DOCTYPE svg PUBLIC "-//W3C//DTD SVG 1.1//EN" "http://www.w3.org/Graphics/SVG/1.1/DTD/svg11.dtd">
<!-- Creator: CorelDRAW 2018 (64 Bit Versão de avaliação) -->
<svg xmlns="http://www.w3.org/2000/svg" xml:space="preserve" width="134.361mm" height="3mm" version="1.1" style="shape-rendering:geometricPrecision; text-rendering:geometricPrecision; image-rendering:optimizeQuality; fill-rule:evenodd; clip-rule:evenodd"
viewBox="0 0 13805.5 308.25"
 xmlns:xlink="http://www.w3.org/1999/xlink">
 <defs>
  <style type="text/css">
   <![CDATA[
    .fil0 {fill:white}
   ]]>
  </style>
 </defs>
 <g id="Camada_x0020_1">
  <metadata id="CorelCorpID_0Corel-Layer"/>
  <g id="_1932483090192">
   <polygon class="fil0" points="13186.4,0 13495.96,308.25 13805.5,0 "/>
   <polygon class="fil0" points="12558.49,0 12868.04,308.25 13177.59,0 "/>
   <polygon class="fil0" points="11930.57,0 12240.13,308.25 12549.67,0 "/>
   <polygon class="fil0" points="11302.64,0 11612.2,308.25 11921.75,0 "/>
   <polygon class="fil0" points="10674.72,0 10984.27,308.25 11293.83,0 "/>
   <polygon class="fil0" points="10046.8,0 10356.35,308.25 10665.91,0 "/>
   <polygon class="fil0" points="9418.85,0 9728.42,308.25 10037.96,0 "/>
   <polygon class="fil0" points="8790.94,0 9100.49,308.25 9410.04,0 "/>
   <polygon class="fil0" points="8163.02,0 8472.58,308.25 8782.13,0 "/>
   <polygon class="fil0" points="7535.1,0 7844.67,308.25 8154.22,0 "/>
   <polygon class="fil0" points="6907.19,0 7216.75,308.25 7526.3,0 "/>
   <polygon class="fil0" points="6279.24,0 6588.81,308.25 6898.34,0 "/>
   <polygon class="fil0" points="5651.3,0 5960.86,308.25 6270.41,0 "/>
   <polygon class="fil0" points="5023.38,0 5332.95,308.25 5642.49,0 "/>
   <polygon class="fil0" points="4395.47,0 4705.04,308.25 5014.58,0 "/>
   <polygon class="fil0" points="3767.56,0 4077.11,308.25 4386.67,0 "/>
   <polygon class="fil0" points="3139.64,0 3449.19,308.25 3758.75,0 "/>
   <polygon class="fil0" points="2511.72,0 2821.28,308.25 3130.83,0 "/>
   <polygon class="fil0" points="1883.81,0 2193.37,308.25 2502.91,0 "/>
   <polygon class="fil0" points="1255.83,0 1565.39,308.25 1874.94,0 "/>
   <polygon class="fil0" points="627.91,0 937.47,308.25 1247.03,0 "/>
   <polygon class="fil0" points="-0,0 309.56,308.25 619.11,0 "/>
  </g>
 </g>
</svg>
