<svg width="120" height="40" viewBox="0 0 120 40" fill="none" xmlns="http://www.w3.org/2000/svg">
<g clip-path="url(#clip0_1_2368)">
<path d="M111.698 39.8547H8.45372C5.31096 39.8547 3.30729 39.2869 1.97607 38.0191C0.644864 36.7514 0.0410156 34.8234 0.0410156 31.7993V7.69891C0.0410156 4.70122 0.644864 2.82602 2.00352 1.6375C3.30729 0.48861 5.22862 0 8.45372 0H111.712C114.896 0 116.762 0.501816 117.97 1.66392C119.178 2.82602 119.672 4.58237 119.672 7.68571V31.7993C119.672 34.8894 119.178 36.7514 117.997 37.9795C116.762 39.2869 114.827 39.8547 111.698 39.8547ZM8.45372 1.79597C3.25239 1.79597 1.89373 3.01089 1.89373 7.69891V31.8125C1.89373 34.2819 2.33289 35.8534 3.27984 36.7646C4.22678 37.6626 5.85992 38.0852 8.45372 38.0852H111.712C116.611 38.0852 117.805 36.857 117.805 31.8257V7.69891C117.805 2.83922 116.721 1.79597 111.712 1.79597H8.45372Z" fill="#232C79"/>
<path fill-rule="evenodd" clip-rule="evenodd" d="M31.5919 23.8363C31.0292 25.0248 30.7685 25.5531 30.0548 26.6095C29.053 28.0753 27.6394 29.9109 25.8965 29.9241C24.3457 29.9373 23.9477 28.9469 21.8342 28.9601C19.7208 28.9733 19.2816 29.9373 17.7308 29.9241C15.9879 29.9109 14.643 28.2602 13.6411 26.7944C10.8415 22.6874 10.5533 17.8806 12.2687 15.3187C13.4902 13.4963 15.4389 12.4398 17.2505 12.4398C19.1032 12.4398 20.2697 13.417 21.8068 13.417C23.289 13.417 24.1947 12.4398 26.3494 12.4398C27.9688 12.4398 29.6843 13.285 30.9057 14.7508C26.8983 16.8505 27.5434 22.3573 31.5919 23.8363Z" fill="#232C79"/>
<path fill-rule="evenodd" clip-rule="evenodd" d="M24.7163 10.789C25.4986 9.82503 26.0887 8.46484 25.8828 7.07825C24.6065 7.15748 23.1244 7.93662 22.246 8.95345C21.4638 9.87785 20.805 11.238 21.0658 12.5718C22.4519 12.6114 23.8929 11.8191 24.7163 10.789Z" fill="#232C79"/>
<path fill-rule="evenodd" clip-rule="evenodd" d="M108.94 25.236H103.066C103.094 26.0151 103.368 26.7018 103.917 27.1508C104.411 27.547 105.056 27.745 105.838 27.745C106.648 27.7582 107.458 27.613 108.213 27.3357L108.515 28.643C107.677 28.9996 106.689 29.1713 105.55 29.1713C104.192 29.1713 103.107 28.7883 102.325 28.0092C101.543 27.23 101.159 26.2 101.145 24.8926C101.145 23.6117 101.515 22.542 102.229 21.6968C102.998 20.7856 104.027 20.3367 105.317 20.3367C106.593 20.3367 107.554 20.7856 108.199 21.6968C108.72 22.4232 108.981 23.3211 108.981 24.3776C109.009 24.6549 108.995 24.9454 108.94 25.236ZM100.514 22.1722C100.321 22.1326 100.116 22.1194 99.9097 22.1194C99.2235 22.1194 98.702 22.3703 98.3178 22.8721C97.9884 23.3211 97.8374 23.8626 97.8374 24.5493V29.026H95.8612V23.1759C95.8612 22.1987 95.8612 21.3139 95.82 20.5347H97.5218L97.5904 22.093H97.6453C97.8237 21.5648 98.1668 21.1026 98.6197 20.7592C99.0177 20.4687 99.5117 20.3102 100.02 20.3102C100.17 20.3102 100.335 20.3234 100.486 20.3499L100.514 22.1722ZM93.487 27.9035C92.6773 28.7619 91.5931 29.1977 90.2619 29.1977C88.9581 29.1977 87.9288 28.7883 87.1603 27.9563C86.3918 27.1376 86.0075 26.0811 86.0075 24.8266C86.0075 23.506 86.4055 22.4364 87.2015 21.5912C87.9974 20.746 89.0542 20.3367 90.3991 20.3367C91.7029 20.3367 92.7459 20.746 93.5281 21.578C94.283 22.3835 94.6535 23.4136 94.6535 24.6813C94.6535 26.0019 94.2555 27.0583 93.487 27.9035ZM85.4311 21.8817H83.2216V26.0547C83.2216 27.098 83.6333 27.613 84.4018 27.613C84.7037 27.6262 84.9919 27.5866 85.2939 27.5337L85.3625 28.96C84.8684 29.1184 84.3606 29.1845 83.8391 29.1713C83.0706 29.1713 82.4667 28.9468 82.0276 28.4846C81.5884 28.0224 81.3826 27.2696 81.3826 26.2V21.8817H80.1062V20.5479H81.3826V18.9633L83.2353 18.4086V20.5479H85.4448V21.8817H85.4311ZM78.528 28.1412C77.732 28.8279 76.6204 29.1713 75.1931 29.1713C73.8756 29.1713 72.8189 28.9336 72.0229 28.4449L72.4758 26.8735C73.3267 27.3621 74.3148 27.613 75.3029 27.613C76.044 27.613 76.6204 27.4545 77.0321 27.1376C77.4438 26.8206 77.6634 26.3452 77.6497 25.8434C77.6634 25.3944 77.4713 24.9586 77.1419 24.6417C76.7988 24.3116 76.2361 24.021 75.4539 23.7305C73.313 22.9646 72.2425 21.8421 72.2425 20.3631C72.215 19.4387 72.6405 18.5671 73.3816 17.986C74.1364 17.3654 75.1382 17.0616 76.3871 17.0616C77.4987 17.0616 78.4319 17.2465 79.173 17.6163L78.679 19.1481C77.9516 18.7784 77.1419 18.5935 76.3322 18.6067C75.6323 18.6067 75.0971 18.7784 74.7128 19.0953C74.3971 19.3726 74.2187 19.7556 74.2187 20.165C74.205 20.614 74.4246 21.0366 74.7814 21.3271C75.1108 21.6044 75.7009 21.9081 76.5655 22.2383C77.6222 22.6476 78.3908 23.1231 78.8986 23.6777C79.3926 24.2323 79.6396 24.9058 79.6396 25.7246C79.6122 26.7018 79.2554 27.5205 78.528 28.1412ZM67.3156 28.0752C66.6295 28.8015 65.6413 29.2109 64.6121 29.1977C63.4455 29.1977 62.5809 28.8015 62.1143 27.9959V32.4991H60.1381V23.3079C60.1381 22.3967 60.0832 21.4459 60.042 20.5479H61.7575L61.8673 21.8817H61.8947C62.5535 20.8781 63.5416 20.3499 64.8728 20.3499C65.8884 20.3367 66.849 20.7724 67.4803 21.5252C68.1802 22.3175 68.5233 23.3608 68.5233 24.6549C68.5371 26.1075 68.1254 27.2432 67.3156 28.0752ZM57.6129 28.0752C56.913 28.8015 55.9249 29.2109 54.8819 29.1977C53.7153 29.1977 52.9331 28.8015 52.3567 27.9959V32.4991H50.3804V23.3079C50.3804 22.3967 50.3804 21.4459 50.3256 20.5479H52.0548L52.1645 21.8817H52.2057C52.8645 20.8781 53.8526 20.3499 55.1838 20.3499C56.2268 20.3499 57.0914 20.7328 57.7913 21.5252C58.4912 22.3175 58.8343 23.3608 58.8343 24.6549C58.8343 26.1075 58.4363 27.2432 57.6129 28.0752ZM47.1279 29.026L45.9751 25.5661H41.9952L40.911 29.026H38.8799L42.8186 17.1937H45.2615L49.2276 29.026H47.1279ZM105.193 21.6308C104.548 21.6308 104.027 21.9081 103.629 22.4099C103.3 22.8457 103.094 23.3475 103.052 23.889H107.142C107.17 23.374 107.032 22.8721 106.758 22.4232C106.429 21.9081 105.893 21.6308 105.193 21.6308ZM43.9851 18.752H43.944C43.8205 19.3066 43.6283 20.0197 43.3676 20.9969L42.352 24.1003H45.632L44.6027 20.9969C44.4929 20.6932 44.2871 19.9801 43.9851 18.752ZM64.2552 21.8421C63.7749 21.8421 63.3083 22.0006 62.9377 22.3043C62.5535 22.6212 62.279 23.0438 62.1829 23.5192C62.128 23.7041 62.1143 23.9022 62.1143 24.1003V25.5133C62.1143 26.1339 62.2927 26.649 62.6907 27.0715C63.075 27.4941 63.6377 27.7186 64.2141 27.7054C64.9552 27.7054 65.5315 27.4281 65.9433 26.8867C66.355 26.3452 66.5608 25.6189 66.5608 24.7209C66.5608 23.9022 66.3687 23.2155 65.9844 22.6741C65.5727 22.1326 64.9277 21.8289 64.2552 21.8421ZM90.3305 21.7233C89.5482 21.7233 88.9444 22.0534 88.5327 22.7269C88.1759 23.2815 87.9975 23.955 87.9975 24.7606C87.9975 25.5397 88.1759 26.2132 88.5327 26.7678C88.9581 27.4413 89.5482 27.7715 90.3168 27.7715C91.0579 27.7715 91.648 27.4413 92.0734 26.7414C92.444 26.1339 92.6361 25.434 92.6224 24.7209C92.6224 23.9418 92.444 23.2683 92.1009 22.7137C91.6754 22.0534 91.0853 21.7233 90.3305 21.7233ZM54.5525 21.8421C54.0722 21.8421 53.6055 22.0006 53.235 22.3043C52.837 22.6212 52.5625 23.0438 52.4527 23.5192C52.3979 23.7041 52.3704 23.9022 52.3567 24.1003V25.5133C52.343 26.0943 52.5488 26.649 52.9468 27.0715C53.3311 27.4941 53.8937 27.7186 54.4839 27.7054C55.225 27.7054 55.8014 27.4281 56.2131 26.8867C56.6248 26.332 56.8306 25.6189 56.8306 24.7209C56.8306 23.9022 56.6385 23.2155 56.2542 22.6741C55.87 22.1326 55.225 21.8289 54.5525 21.8421Z" fill="#232C79"/>
<path d="M42.585 8.27991C44.6436 8.27991 45.8513 9.49483 45.8513 11.5813C45.8513 13.7206 44.671 14.9488 42.585 14.9488H39.9912V8.27991H42.585ZM41.2126 13.9187H42.4066C43.779 13.9187 44.575 13.0868 44.575 11.6077C44.575 10.1551 43.779 9.30995 42.4066 9.30995H41.2126V13.9187Z" fill="#232C79"/>
<path d="M46.9902 8.43844C46.9902 8.06868 47.2922 7.80457 47.7313 7.80457C48.1705 7.80457 48.4724 8.06868 48.4724 8.43844C48.4724 8.8082 48.1705 9.07231 47.7313 9.07231C47.3059 9.07231 46.9902 8.8082 46.9902 8.43844ZM47.1412 9.89106H48.3214V14.9488H47.1412V9.89106Z" fill="#232C79"/>
<path d="M51.7799 9.7854C53.0288 9.7854 53.811 10.3136 53.8934 11.238H52.768C52.6857 10.8815 52.3289 10.657 51.7799 10.657C51.2309 10.657 50.833 10.9079 50.833 11.2776C50.833 11.5682 51.08 11.7398 51.6152 11.8587L52.5484 12.0568C53.5503 12.2681 54.0169 12.6907 54.0169 13.4302C54.0169 14.4074 53.0837 15.0545 51.7799 15.0545C50.4624 15.0545 49.639 14.513 49.5566 13.5886H50.7369C50.8467 13.9584 51.2172 14.1829 51.8211 14.1829C52.4249 14.1829 52.8366 13.932 52.8366 13.549C52.8366 13.2585 52.6171 13.0868 52.1093 12.9812L51.1761 12.7699C50.1605 12.5454 49.6802 12.0964 49.6802 11.3437C49.6802 10.4193 50.5448 9.7854 51.7799 9.7854Z" fill="#232C79"/>
<path d="M60.2476 12.4265C60.2476 14.0376 59.4242 15.0412 58.0929 15.0412C57.3381 15.0412 56.7617 14.7243 56.4873 14.196H56.4049V16.6523H55.2109V9.9174H56.3637V10.7494H56.4461C56.748 10.1815 57.3656 9.82496 58.0792 9.82496C59.4104 9.81175 60.2476 10.8022 60.2476 12.4265ZM59.0262 12.4265C59.0262 11.4096 58.5321 10.789 57.7087 10.789C56.899 10.789 56.3912 11.4228 56.3775 12.4265C56.3775 13.4433 56.8852 14.064 57.695 14.064C58.5321 14.0508 59.0262 13.4433 59.0262 12.4265Z" fill="#232C79"/>
<path d="M61.1807 12.4264C61.1807 10.7889 62.1413 9.79846 63.7058 9.79846C65.2704 9.79846 66.231 10.7889 66.231 12.4264C66.231 14.0639 65.2704 15.0543 63.7058 15.0543C62.1413 15.0543 61.1807 14.0639 61.1807 12.4264ZM65.0096 12.4264C65.0096 11.3699 64.5293 10.7625 63.7058 10.7625C62.8687 10.7625 62.4021 11.3831 62.4021 12.4264C62.4021 13.4828 62.8824 14.0903 63.7058 14.0903C64.543 14.0903 65.0096 13.4828 65.0096 12.4264Z" fill="#232C79"/>
<path d="M67.4385 9.89105H68.5913V10.6966H68.6736C68.9207 10.1287 69.4559 9.7854 70.2381 9.7854C71.4047 9.7854 72.0497 10.4589 72.0497 11.6738V14.9488H70.8557V11.9511C70.8557 11.1852 70.5263 10.789 69.799 10.789C69.0853 10.789 68.6462 11.2644 68.6462 12.004V14.9488H67.4522V9.89105H67.4385Z" fill="#232C79"/>
<path d="M73.3809 9.05907L74.5748 7.46118H75.9061L74.5474 9.05907H73.3809ZM73.4632 9.89103H74.6435V14.9488H73.4632V9.89103Z" fill="#232C79"/>
<path d="M78.8568 14.9488H77.5393L75.6729 9.89099H76.9492L78.1706 13.7999H78.2529L79.4606 9.89099H80.7232L78.8568 14.9488Z" fill="#232C79"/>
<path d="M86.0622 13.5622C85.8426 14.4866 84.9643 15.0545 83.7291 15.0545C82.1783 15.0545 81.2451 14.064 81.2451 12.4397C81.2451 10.8154 82.1921 9.7854 83.7154 9.7854C85.2113 9.7854 86.1171 10.7362 86.1171 12.3341V12.7039H82.4528V12.7699C82.4803 13.615 82.988 14.1433 83.7703 14.1433C84.3604 14.1433 84.7721 13.932 84.9368 13.5622H86.0622ZM82.4528 11.9379H84.9231C84.8956 11.1852 84.429 10.6966 83.7154 10.6966C83.0018 10.6966 82.5077 11.1852 82.4528 11.9379Z" fill="#232C79"/>
<path d="M87.3662 7.93665H88.5602V14.9489H87.3662V7.93665Z" fill="#232C79"/>
<path d="M92.6768 9.89105H93.8296V10.6966H93.9119C94.1589 10.1287 94.6942 9.7854 95.4764 9.7854C96.6429 9.7854 97.288 10.4589 97.288 11.6738V14.9488H96.094V11.9511C96.094 11.1852 95.7646 10.789 95.0373 10.789C94.3236 10.789 93.8845 11.2644 93.8845 12.004V14.9488H92.6905V9.89105H92.6768Z" fill="#232C79"/>
<path d="M98.3994 13.5225C98.3994 12.6113 99.1131 12.083 100.389 12.0038L101.748 11.9246V11.502C101.748 11.0134 101.405 10.7361 100.76 10.7361C100.211 10.7361 99.8404 10.9209 99.7306 11.2643H98.6053C98.7013 10.3663 99.5659 9.79846 100.815 9.79846C102.16 9.79846 102.928 10.4323 102.928 11.502V14.9487H101.775V14.262H101.693C101.405 14.7506 100.829 15.0411 100.142 15.0411C99.1268 15.0279 98.3994 14.4469 98.3994 13.5225ZM101.748 13.0999V12.7037L100.568 12.7829C99.8953 12.8226 99.5934 13.0603 99.5934 13.4696C99.5934 13.8922 99.9777 14.1431 100.499 14.1431C101.213 14.1299 101.748 13.6809 101.748 13.0999Z" fill="#232C79"/>
</g>
<defs>
<clipPath id="clip0_1_2368">
<rect width="119.644" height="40" fill="white"/>
</clipPath>
</defs>
</svg>
