<svg width="120" height="40" viewBox="0 0 120 40" fill="none" xmlns="http://www.w3.org/2000/svg">
<g clip-path="url(#clip0_1_2388)">
<path d="M111.698 39.9603H8.4127C5.25622 39.9603 3.26627 39.3925 1.93506 38.1248C0.603848 36.857 0 34.929 0 31.9049V7.77811C0 4.78042 0.603848 2.90522 1.96251 1.71671C3.26627 0.567811 5.20133 0.0924072 8.4127 0.0924072H111.698C114.882 0.0924072 116.749 0.594223 117.956 1.75632C119.15 2.91842 119.658 4.67478 119.658 7.79132V31.9181C119.658 35.0214 119.164 36.8702 117.984 38.0983C116.762 39.3793 114.827 39.9603 111.698 39.9603ZM8.4127 1.87517C3.19765 1.87517 1.85272 3.0901 1.85272 7.77811V31.9049C1.85272 34.3743 2.29188 35.959 3.23882 36.857C4.18577 37.755 5.8189 38.1776 8.4127 38.1776H111.698C116.598 38.1776 117.792 36.9495 117.792 31.9049V7.77811C117.792 2.91842 116.707 1.87517 111.698 1.87517H8.4127Z" fill="#232C79"/>
<path fill-rule="evenodd" clip-rule="evenodd" d="M45.6453 23.6911C45.6453 25.1966 45.1787 26.3983 44.2592 27.2831C43.2025 28.3395 41.8438 28.881 40.1558 28.881C38.5501 28.881 37.1777 28.3395 36.0386 27.2699C34.9133 26.2002 34.3506 24.8664 34.3506 23.2685C34.3506 21.6839 34.9133 20.3501 36.0386 19.2672C37.1228 18.2108 38.6187 17.6297 40.1558 17.6561C40.938 17.6561 41.7203 17.8014 42.4476 18.1051C43.1201 18.3692 43.724 18.7786 44.1906 19.3068L43.2025 20.2577C42.4614 19.4125 41.4458 18.9767 40.142 18.9767C39.003 18.9635 37.9051 19.3993 37.0954 20.1652C36.2308 20.9576 35.8053 22.0008 35.8053 23.2685C35.8053 24.5363 36.2308 25.5795 37.0954 26.3719C37.9051 27.151 39.003 27.5868 40.142 27.5736C41.3909 27.5736 42.4339 27.1774 43.2574 26.3851C43.7926 25.8701 44.1082 25.1041 44.1906 24.2194H40.1283V22.8856H45.5355C45.6179 23.1365 45.6316 23.4138 45.6453 23.6911Z" fill="#232C79"/>
<path fill-rule="evenodd" clip-rule="evenodd" d="M48.4174 26.9C49.3369 27.8376 50.8603 27.8773 51.8347 26.9925C51.8621 26.9661 51.9033 26.9265 51.9307 26.9C52.4248 26.4114 52.6718 25.7776 52.6718 24.972C52.6718 24.1665 52.4248 23.5326 51.9307 23.044C51.0112 22.1064 49.4879 22.0668 48.5135 22.9515C48.4861 22.978 48.4449 23.0176 48.4174 23.044C47.9234 23.5326 47.6764 24.1797 47.6764 24.972C47.6626 25.7776 47.9234 26.4114 48.4174 26.9ZM47.347 22.1724C48.0881 21.4329 49.0213 21.0499 50.1741 21.0499C51.3132 21.0499 52.2601 21.4197 53.0012 22.1724C53.7423 22.9119 54.1128 23.8495 54.1128 24.972C54.1128 26.0945 53.7423 27.0321 53.0012 27.7716C52.2601 28.5111 51.3269 28.8941 50.1741 28.8941C49.035 28.8941 48.0881 28.5243 47.347 27.7716C46.6059 27.0321 46.2354 26.0945 46.2354 24.972C46.2354 23.8495 46.6059 22.9119 47.347 22.1724Z" fill="#232C79"/>
<path fill-rule="evenodd" clip-rule="evenodd" d="M56.7612 26.9C57.6807 27.8376 59.204 27.8773 60.1784 26.9925C60.2059 26.9661 60.247 26.9265 60.2745 26.9C60.7685 26.4114 61.0156 25.7776 61.0156 24.972C61.0156 24.1665 60.7685 23.5326 60.2745 23.044C59.355 22.1064 57.8316 22.0668 56.8573 22.9515C56.8298 22.978 56.7886 23.0176 56.7612 23.044C56.2671 23.5326 56.0201 24.1797 56.0201 24.972C56.0201 25.7776 56.2671 26.4114 56.7612 26.9ZM55.6907 22.1724C56.4318 21.4329 57.365 21.0499 58.5178 21.0499C59.6569 21.0499 60.6039 21.4197 61.3449 22.1724C62.086 22.9119 62.4566 23.8495 62.4566 24.972C62.4566 26.0945 62.086 27.0321 61.3449 27.7716C60.6039 28.5111 59.6706 28.8941 58.5178 28.8941C57.3788 28.8941 56.4318 28.5243 55.6907 27.7716C54.9496 27.0321 54.5791 26.0945 54.5791 24.972C54.5791 23.8495 54.9496 22.9119 55.6907 22.1724Z" fill="#232C79"/>
<path fill-rule="evenodd" clip-rule="evenodd" d="M66.8076 27.6263C67.4664 27.6395 68.0976 27.3754 68.5368 26.9C69.0034 26.4246 69.2504 25.7775 69.2504 24.9587C69.2504 24.1532 69.0171 23.5061 68.5368 23.0175C67.6585 22.1063 66.1763 22.0535 65.2294 22.8986C65.1882 22.9383 65.147 22.9779 65.1059 23.0175C64.6255 23.5061 64.3922 24.1532 64.3922 24.9455C64.3922 25.7511 64.6255 26.3849 65.1059 26.8736C65.5176 27.3754 66.1489 27.6395 66.8076 27.6263ZM66.6978 32.1294C65.792 32.1294 65.051 31.9181 64.4746 31.4823C63.9393 31.0862 63.5139 30.5711 63.2531 29.9901L64.5706 29.4619C64.7216 29.8712 65.0098 30.2278 65.3803 30.4655C65.7646 30.7296 66.2312 30.8749 66.7115 30.8749C67.5075 30.8749 68.1525 30.6504 68.6054 30.1882C69.0583 29.726 69.3053 29.1185 69.3053 28.3394V27.6659H69.1681C68.5643 28.4582 67.5899 28.9204 66.5606 28.894C65.5725 28.894 64.7216 28.5111 64.008 27.7583C63.2943 27.0056 62.9375 26.068 62.9375 24.9719C62.9375 23.8759 63.2943 22.9251 64.008 22.1855C64.7216 21.4328 65.5725 21.0631 66.5606 21.0631C67.5899 21.0366 68.5643 21.5121 69.1681 22.3176H69.2779V21.314H70.5542V28.2866C70.5542 29.5411 70.1974 30.5051 69.4426 31.1654C68.6878 31.8125 67.782 32.1294 66.6978 32.1294Z" fill="#232C79"/>
<path d="M73.3402 17.9597H71.9541V28.6827H73.3402V17.9597Z" fill="#232C79"/>
<path fill-rule="evenodd" clip-rule="evenodd" d="M80.2017 24.1004C80.1742 23.6514 79.9684 23.2816 79.5978 22.8987C79.2273 22.5157 78.6783 22.3308 77.9509 22.3308C77.4432 22.3176 76.9491 22.4893 76.5648 22.8194C76.1531 23.1628 75.8787 23.6118 75.7551 24.1136L80.2017 24.1004ZM78.1431 28.894C76.9903 28.894 76.0433 28.5243 75.3297 27.7716C74.6023 27.032 74.2455 26.0944 74.2455 24.9588C74.2181 23.9419 74.6023 22.9515 75.3023 22.1988C75.9747 21.446 76.9628 21.0235 77.9921 21.0499C79.1312 21.0499 80.037 21.4064 80.7094 22.1195C81.3956 22.8326 81.725 23.7702 81.725 24.9588L81.7113 25.2097H75.6728C75.714 25.9888 75.9747 26.5434 76.4413 26.9792C76.8805 27.4018 77.4843 27.6263 78.1019 27.6263C79.1312 27.6263 79.8311 27.2037 80.1879 26.3718L81.4642 26.8868C81.2035 27.4678 80.7781 27.9696 80.2291 28.3262C79.6801 28.696 78.9802 28.894 78.1431 28.894Z" fill="#232C79"/>
<path fill-rule="evenodd" clip-rule="evenodd" d="M87.3929 22.9779H89.7946C90.3436 23.0043 90.8788 22.7798 91.2493 22.3969C91.5924 22.0535 91.7846 21.5913 91.7983 21.1027C91.7983 20.6141 91.5924 20.1519 91.2493 19.7954C90.8788 19.3992 90.3573 19.1747 89.7946 19.1879H87.3929V22.9779ZM87.3929 28.6696H86.0068V17.9598H89.7672C90.673 17.9334 91.5513 18.2503 92.2237 18.8446C92.8962 19.4124 93.2805 20.2576 93.2668 21.1159C93.2942 21.9875 92.9099 22.8327 92.2237 23.4137C91.5513 24.008 90.673 24.3381 89.7672 24.3249H87.4067V28.6696" fill="#232C79"/>
<path d="M95.6136 17.9597H94.2275V28.6827H95.6136V17.9597Z" fill="#232C79"/>
<path fill-rule="evenodd" clip-rule="evenodd" d="M99.5527 27.6264C100.157 27.6264 100.733 27.3887 101.172 26.9925C101.639 26.6228 101.899 26.0681 101.899 25.4871C101.501 25.1701 100.884 25.0117 100.074 25.0117C99.3743 25.0117 98.8528 25.1569 98.496 25.4474C98.1666 25.6984 97.9745 26.0681 97.9607 26.4643C97.947 26.8076 98.1392 27.1378 98.4411 27.3227C98.7704 27.5207 99.1547 27.6396 99.5527 27.6264ZM99.3194 28.9073C98.5783 28.9337 97.8509 28.6828 97.2883 28.2206C96.7393 27.7716 96.4648 27.1642 96.4648 26.4379C96.4648 25.6323 96.7805 25.0117 97.4392 24.5495C98.098 24.0873 98.8802 23.8628 99.8272 23.8628C100.664 23.8628 101.323 24.008 101.899 24.3118V24.1005C101.913 23.6119 101.707 23.1232 101.323 22.8063C100.925 22.4762 100.417 22.3045 99.8958 22.3177C99.4978 22.3177 99.1135 22.4101 98.7704 22.6082C98.4548 22.7799 98.2078 23.0572 98.0705 23.3874L96.753 22.8459C96.9315 22.4101 97.2745 22.0008 97.7961 21.6178C98.3176 21.2348 99.0037 21.05 99.8546 21.0632C100.829 21.0632 101.652 21.3405 102.297 21.8819C102.942 22.4366 103.286 23.2157 103.286 24.2193V28.6828H101.899V27.6792H101.831C101.268 28.4715 100.321 28.9337 99.3194 28.9073Z" fill="#232C79"/>
<path fill-rule="evenodd" clip-rule="evenodd" d="M106.414 31.9181H104.905L106.689 28.1941L103.532 21.3008H105.097L107.375 26.5566H107.402L109.612 21.3008H111.176L106.387 31.9181" fill="#232C79"/>
<path fill-rule="evenodd" clip-rule="evenodd" d="M24.7849 16.4544L11.1846 8.92712L21.9303 19.2011L24.7849 16.4544Z" fill="#232C79"/>
<path fill-rule="evenodd" clip-rule="evenodd" d="M9.94953 8.99304C9.89464 9.09869 9.86719 9.20433 9.86719 9.30998V30.6107C9.86719 30.6768 9.88091 30.7428 9.89464 30.7956L21.2717 19.8349L9.94953 8.99304Z" fill="#232C79"/>
<path fill-rule="evenodd" clip-rule="evenodd" d="M21.9299 20.4689L10.7725 31.2183C10.7999 31.2051 10.8411 31.1919 10.8685 31.1787L24.9629 23.3741L21.9299 20.4689Z" fill="#232C79"/>
<path fill-rule="evenodd" clip-rule="evenodd" d="M30.1096 19.3992L25.6082 16.9165L22.5752 19.835L25.7866 22.9119L30.0958 20.5217C30.4252 20.35 30.535 19.9538 30.3429 19.6369C30.3017 19.5444 30.2194 19.452 30.1096 19.3992Z" fill="#232C79"/>
<path d="M34.7207 14.962V9.6665H36.4087C37.2596 9.6665 37.9321 9.91741 38.4399 10.406C38.9476 10.8946 39.1947 11.5285 39.1947 12.3208C39.1947 13.1 38.9476 13.7471 38.4399 14.2357C37.9321 14.7243 37.2596 14.9752 36.4087 14.9752H34.7207V14.962ZM35.4343 14.3149H36.4087C37.04 14.3149 37.5478 14.1432 37.9184 13.7867C38.2889 13.4301 38.481 12.9415 38.481 12.3076C38.481 11.687 38.2889 11.1852 37.9184 10.8418C37.5478 10.4853 37.04 10.3136 36.4087 10.3136H35.4343V14.3149Z" fill="#232C79"/>
<path d="M36.409 15.0545H34.6387V9.5741H36.409C37.2736 9.5741 37.9873 9.825 38.5088 10.34C39.0303 10.8418 39.291 11.5153 39.291 12.3209C39.291 13.1264 39.0303 13.7867 38.5088 14.3017C37.9873 14.8035 37.2736 15.0545 36.409 15.0545ZM34.8171 14.8828H36.409C37.2325 14.8828 37.8912 14.6451 38.3715 14.1697C38.8656 13.6943 39.1126 13.0736 39.1126 12.3209C39.1126 11.5682 38.8656 10.9343 38.3715 10.4721C37.8775 9.99668 37.2187 9.75898 36.409 9.75898H34.8171V14.8828ZM36.409 14.4074H35.3386V10.2344H36.409C37.0678 10.2344 37.603 10.4193 37.9873 10.789C38.3715 11.1588 38.5774 11.6738 38.5774 12.3209C38.5774 12.9812 38.3853 13.4962 37.9873 13.8527C37.603 14.2225 37.0678 14.4074 36.409 14.4074ZM35.5307 14.2225H36.4228C37.0266 14.2225 37.5207 14.0508 37.8638 13.7207C38.2206 13.3905 38.399 12.9151 38.399 12.3077C38.399 11.7134 38.2206 11.238 37.8638 10.8947C37.5069 10.5645 37.0266 10.3928 36.4228 10.3928H35.5307V14.2225Z" fill="#232C79"/>
<path d="M40.1963 14.962V9.6665H40.9099V14.962H40.1963Z" fill="#232C79"/>
<path d="M40.9926 15.0545H40.1006V9.5741H40.9926V15.0545ZM40.2927 14.8828H40.8142V9.75898H40.2927V14.8828Z" fill="#232C79"/>
<path d="M43.7231 15.0808C43.3251 15.0808 42.9271 14.9487 42.5566 14.6978C42.1723 14.4469 41.9253 14.0904 41.8018 13.6414L42.4468 13.3905C42.5291 13.681 42.6801 13.9319 42.9134 14.13C43.1467 14.3281 43.4212 14.4337 43.7231 14.4337C44.025 14.4337 44.2995 14.3545 44.5054 14.196C44.7249 14.0375 44.8347 13.8262 44.8347 13.5621C44.8347 13.2716 44.7249 13.0339 44.5054 12.8754C44.2858 12.717 43.9427 12.5717 43.4761 12.4264C42.982 12.2812 42.6252 12.0831 42.3644 11.8586C42.1174 11.6209 41.9802 11.3304 41.9802 10.9606C41.9802 10.5777 42.1311 10.2475 42.4468 9.97019C42.7624 9.69287 43.1741 9.54761 43.6682 9.54761C44.1348 9.54761 44.5191 9.66646 44.8073 9.89095C45.0955 10.1155 45.2876 10.3664 45.37 10.6305L44.7249 10.8946C44.6975 10.7097 44.5877 10.5644 44.4093 10.4192C44.2309 10.2739 43.9976 10.2079 43.7094 10.2079C43.4349 10.2079 43.2016 10.2739 43.0095 10.4324C42.8036 10.5644 42.7075 10.7493 42.7075 10.9606C42.7075 11.1587 42.7899 11.3304 42.9683 11.4624C43.1467 11.5945 43.4074 11.7265 43.7505 11.8322C44.025 11.9114 44.2446 12.0039 44.4367 12.0831C44.6151 12.1623 44.8073 12.268 44.9857 12.4C45.1778 12.5321 45.3151 12.6906 45.4111 12.8886C45.5072 13.0867 45.5484 13.3112 45.5484 13.5621C45.5484 13.813 45.4935 14.0507 45.3837 14.2488C45.2739 14.4469 45.1229 14.6054 44.9445 14.7242C44.7661 14.8431 44.5603 14.9355 44.3544 14.9883C44.1623 15.0544 43.9427 15.0808 43.7231 15.0808Z" fill="#232C79"/>
<path d="M43.7235 15.1733C43.3117 15.1733 42.9 15.0412 42.502 14.7771C42.104 14.513 41.8433 14.1433 41.7198 13.6679L41.7061 13.5886L42.5295 13.2717L42.5569 13.3641C42.6256 13.6414 42.7765 13.8659 42.9961 14.0508C43.2157 14.2357 43.4627 14.3281 43.7372 14.3281C44.0254 14.3281 44.2724 14.2621 44.4783 14.1168C44.6704 13.9848 44.7665 13.7999 44.7665 13.549C44.7665 13.2849 44.6704 13.0736 44.4783 12.9283C44.2724 12.7699 43.9293 12.6246 43.4764 12.4926C42.9824 12.3473 42.5981 12.136 42.3374 11.8983C42.0629 11.6474 41.9256 11.3172 41.9256 10.9343C41.9256 10.5249 42.0903 10.1816 42.4197 9.87783C42.7491 9.5873 43.1882 9.42883 43.7097 9.42883C44.1901 9.42883 44.6018 9.54768 44.9037 9.78539C45.2056 10.0231 45.4115 10.2872 45.5076 10.5645L45.535 10.6438L44.7116 10.9739L44.6841 10.8815C44.643 10.7362 44.5332 10.5909 44.3685 10.4589C44.2038 10.3268 43.9842 10.2608 43.7235 10.2608C43.4764 10.2608 43.2568 10.3268 43.0784 10.4589C42.9138 10.5909 42.8314 10.7494 42.8314 10.9343C42.8314 11.106 42.9 11.2512 43.0647 11.3701C43.2294 11.5021 43.4902 11.621 43.8195 11.7266C44.094 11.8191 44.3273 11.8983 44.5057 11.9775C44.6978 12.0568 44.89 12.1624 45.0821 12.3077C45.2742 12.4397 45.4389 12.6246 45.535 12.8359C45.6311 13.0472 45.686 13.2849 45.686 13.549C45.686 13.8131 45.6311 14.064 45.5076 14.2753C45.3978 14.4866 45.2331 14.6583 45.0409 14.7903C44.8488 14.9092 44.643 15.0016 44.4234 15.0677C44.1763 15.1469 43.9568 15.1733 43.7235 15.1733ZM41.9119 13.7075C42.0354 14.1036 42.2687 14.4206 42.5981 14.6451C43.1608 15.0148 43.7784 15.0809 44.341 14.9224C44.5469 14.8696 44.7253 14.7771 44.9037 14.6583C45.0684 14.5526 45.2056 14.3942 45.3154 14.2093C45.4115 14.0244 45.4664 13.7999 45.4664 13.5622C45.4664 13.3245 45.4252 13.1 45.3291 12.9283C45.2468 12.7435 45.1096 12.5982 44.9312 12.4793C44.7527 12.3473 44.5743 12.2548 44.3959 12.1756C44.2175 12.0964 43.9979 12.0171 43.7235 11.9379C43.3666 11.8323 43.1059 11.7002 42.9138 11.5549C42.7079 11.3965 42.6118 11.2116 42.6118 10.9871C42.6118 10.7362 42.7216 10.5381 42.9412 10.3796C43.1471 10.2212 43.4078 10.1419 43.696 10.1419C43.9979 10.1419 44.2587 10.2212 44.4645 10.3796C44.6292 10.5117 44.739 10.6438 44.8076 10.8022L45.288 10.6173C45.1919 10.3928 45.0272 10.1948 44.7802 9.99668C44.5057 9.78539 44.1352 9.67974 43.696 9.67974C43.2157 9.67974 42.8314 9.8118 42.5295 10.0759C42.2276 10.34 42.0903 10.6438 42.0903 11.0003C42.0903 11.3437 42.2001 11.621 42.4334 11.8323C42.6667 12.0568 43.0373 12.2416 43.5039 12.3869C43.9842 12.5322 44.341 12.6774 44.5606 12.8491C44.8076 13.0208 44.9174 13.2849 44.9174 13.6018C44.9174 13.8924 44.7939 14.1301 44.5606 14.3017C44.3273 14.4338 44.0528 14.5262 43.7235 14.5262C43.4078 14.5262 43.1196 14.4206 42.8589 14.2093C42.6393 14.0244 42.4746 13.7867 42.3922 13.5226L41.9119 13.7075Z" fill="#232C79"/>
<path d="M47.2781 14.962H46.5645V9.6665H48.4446C48.9112 9.6665 49.3092 9.81177 49.6523 10.1155C49.9954 10.4192 50.1601 10.789 50.1601 11.2512C50.1601 11.7002 49.9954 12.0831 49.6523 12.3737C49.3092 12.6774 48.9112 12.8227 48.4446 12.8227H47.2781V14.962ZM47.2781 12.1756H48.4583C48.7603 12.1756 48.9936 12.0831 49.172 11.8851C49.3504 11.687 49.4465 11.4757 49.4465 11.2512C49.4465 11.0267 49.3504 10.8022 49.172 10.6173C48.9936 10.4192 48.7603 10.3268 48.4583 10.3268H47.2781V12.1756Z" fill="#232C79"/>
<path d="M47.3745 15.0545H46.4824V9.5741H48.4587C48.9527 9.5741 49.3782 9.73257 49.735 10.0495C50.0918 10.3664 50.2702 10.7626 50.2702 11.238C50.2702 11.7134 50.0918 12.1228 49.735 12.4265C49.3782 12.7435 48.9527 12.9019 48.4587 12.9019H47.3745V15.0545ZM46.6746 14.8828H47.1961V12.7303H48.4587C48.8978 12.7303 49.2821 12.585 49.6115 12.3077C49.9408 12.0304 50.0918 11.6738 50.0918 11.238C50.0918 10.8022 49.9408 10.4589 49.6115 10.1684C49.2958 9.89103 48.8978 9.74577 48.4587 9.74577H46.6746V14.8828ZM48.4724 12.2548H47.1961V10.2344H48.4724C48.8017 10.2344 49.0625 10.34 49.2546 10.5513C49.4468 10.7626 49.5428 10.9871 49.5428 11.2512C49.5428 11.5021 49.4468 11.7398 49.2546 11.9511C49.0625 12.1492 48.788 12.2548 48.4724 12.2548ZM47.3745 12.0832H48.4724C48.7469 12.0832 48.9527 12.0039 49.1174 11.8191C49.2821 11.6474 49.3644 11.4493 49.3644 11.238C49.3644 11.0267 49.2821 10.8418 49.1174 10.657C48.9527 10.4853 48.7469 10.3928 48.4724 10.3928H47.3745V12.0832Z" fill="#232C79"/>
<path d="M55.5808 14.2886C55.0456 14.83 54.3594 15.0941 53.5634 15.0941C52.7537 15.0941 52.0813 14.83 51.546 14.2886C51.0108 13.7471 50.7363 13.1001 50.7363 12.3209C50.7363 11.5418 51.0108 10.8947 51.546 10.3533C52.0813 9.81184 52.7537 9.54773 53.5634 9.54773C54.3594 9.54773 55.0319 9.81184 55.5808 10.3533C56.1298 10.8947 56.3905 11.5418 56.3905 12.3209C56.3905 13.0868 56.1161 13.7471 55.5808 14.2886ZM52.0538 13.8396C52.4655 14.2357 52.9596 14.4338 53.5497 14.4338C54.1398 14.4338 54.6339 14.2357 55.0456 13.8396C55.4573 13.4434 55.6632 12.9284 55.6632 12.3209C55.6632 11.7135 55.4573 11.1984 55.0456 10.8023C54.6339 10.4061 54.1398 10.208 53.5497 10.208C52.9596 10.208 52.4655 10.4061 52.0538 10.8023C51.6421 11.1984 51.4362 11.7135 51.4362 12.3209C51.4362 12.9284 51.6558 13.4434 52.0538 13.8396Z" fill="#232C79"/>
<path d="M53.5501 15.1734C52.7267 15.1734 52.0268 14.8961 51.4641 14.3414C50.9152 13.7868 50.627 13.1133 50.627 12.3078C50.627 11.5022 50.9152 10.8287 51.4641 10.2741C52.0268 9.71946 52.7267 9.44214 53.5501 9.44214C54.3736 9.44214 55.0735 9.71946 55.6362 10.2741C56.1988 10.8287 56.4733 11.5022 56.4733 12.2946C56.4733 13.0869 56.1851 13.7736 55.6362 14.3282C55.0872 14.8961 54.3873 15.1734 53.5501 15.1734ZM53.5501 9.64022C52.7679 9.64022 52.1228 9.90434 51.6013 10.4194C51.0798 10.9344 50.8191 11.5815 50.8191 12.321C50.8191 13.0605 51.0798 13.7076 51.6013 14.2226C52.1228 14.7376 52.7816 15.0017 53.5501 15.0017C54.3187 15.0017 54.9774 14.7376 55.4989 14.2226C56.0204 13.7076 56.2812 13.0605 56.2812 12.321C56.2812 11.5815 56.0204 10.9344 55.4989 10.4194C54.9774 9.90434 54.3187 9.64022 53.5501 9.64022ZM53.5501 14.5263C52.9326 14.5263 52.4111 14.315 51.9856 13.9057C51.5602 13.4963 51.3543 12.9548 51.3543 12.321C51.3543 11.6871 51.5739 11.1457 51.9856 10.7363C52.4111 10.3269 52.9326 10.1156 53.5501 10.1156C54.1677 10.1156 54.6892 10.3269 55.1146 10.7363C55.5401 11.1457 55.7597 11.6871 55.7597 12.321C55.7597 12.9548 55.5401 13.4963 55.1146 13.9057C54.6892 14.315 54.1677 14.5263 53.5501 14.5263ZM52.1229 13.7736C52.5071 14.1566 52.9875 14.3414 53.5501 14.3414C54.1128 14.3414 54.5931 14.1434 54.9774 13.7736C55.3617 13.3906 55.5675 12.902 55.5675 12.3078C55.5675 11.7135 55.3754 11.2249 54.9774 10.8419C54.5931 10.459 54.1128 10.2741 53.5501 10.2741C52.9875 10.2741 52.5071 10.4722 52.1229 10.8419C51.7386 11.2249 51.5327 11.7135 51.5327 12.3078C51.5327 12.902 51.7386 13.4038 52.1229 13.7736Z" fill="#232C79"/>
<path d="M57.3789 14.962V9.6665H58.2435L60.9197 13.7867H60.9471L60.9197 12.7698V9.6665H61.6333V14.962H60.8922L58.0925 10.6437H58.0514L58.0788 11.6606V14.962H57.3789Z" fill="#232C79"/>
<path d="M61.7159 15.0545H60.8376L60.8102 15.0148L58.1615 10.9211L58.1889 11.6606V15.0545H57.2969V9.5741H58.2987L60.8513 13.5094L60.8239 12.7699V9.5741H61.7159V15.0545ZM60.9337 14.8828H61.5238V9.75898H61.0023V12.7699L61.0298 13.8791H60.8513L58.1889 9.75898H57.4753V14.8828H57.9968V11.6606L57.9693 10.5513H58.1478L58.1752 10.5909L60.9337 14.8828Z" fill="#232C79"/>
<path d="M62.8818 14.9621V9.66658H63.5955V14.9621H62.8818ZM63.5543 9.25721H62.9367L63.3347 8.3064H64.1033L63.5543 9.25721Z" fill="#232C79"/>
<path d="M63.6918 15.0545H62.7998V9.57417H63.6918V15.0545ZM62.9782 14.8829H63.4997V9.75905H62.9782V14.8829ZM63.6095 9.33647H62.7998L63.2801 8.21399H64.2682L63.6095 9.33647ZM63.0743 9.1648H63.4997L63.9526 8.39887H63.4037L63.0743 9.1648Z" fill="#232C79"/>
<path d="M66.2173 14.962L64.2822 9.6665H65.0645L66.5741 13.9716H66.6015L68.1661 9.6665H68.9483L66.9446 14.962H66.2173Z" fill="#232C79"/>
<path d="M67.0265 15.0545H66.1482L64.1445 9.5741H65.1189L66.5736 13.7339L68.097 9.5741H69.0714L69.0302 9.69295L67.0265 15.0545ZM66.2854 14.8828H66.8893L68.8244 9.75898H68.2342L66.6697 14.064H66.505L64.9954 9.75898H64.4053L66.2854 14.8828Z" fill="#232C79"/>
<path d="M72.9691 10.3136H70.4577V11.9907H72.7358V12.6246H70.4714V14.3017H72.9829V14.9488H69.7715V9.6665H72.9829V10.3136H72.9691Z" fill="#232C79"/>
<path d="M73.0656 15.0545H69.6621V9.5741H73.0656V10.4061H70.5542V11.9115H72.8186V12.7303H70.5542V14.2357H73.0656V15.0545ZM69.8542 14.8828H72.8872V14.4074H70.3758V12.5454H72.6402V12.0832H70.3758V10.2344H72.8872V9.75898H69.8542V14.8828Z" fill="#232C79"/>
<path d="M74.0811 14.962V9.6665H74.7947V14.3149H77.1826V14.962H74.0811Z" fill="#232C79"/>
<path d="M77.2653 15.0545H73.9854V9.5741H74.8774V14.2225H77.2653V15.0545ZM74.1775 14.8828H77.0869V14.4074H74.699V9.75898H74.1775V14.8828Z" fill="#232C79"/>
<path d="M79.9131 14.962V9.6665H80.7777L83.4538 13.7867H83.4813L83.4538 12.7698V9.6665H84.1675V14.962H83.4264L80.6267 10.6437H80.5993L80.6267 11.6606V14.962H79.9131Z" fill="#232C79"/>
<path d="M84.2501 15.0545H83.3718L83.3444 15.0148L80.6957 10.9211L80.7231 11.6606V15.0545H79.8311V9.5741H80.8329L83.3855 13.5094L83.3581 12.7699V9.5741H84.2501V15.0545ZM83.4816 14.8828H84.0717V9.75898H83.5502V12.7699L83.5777 13.8791H83.3992L80.7231 9.75898H80.0095V14.8828H80.531V11.6606L80.5035 10.5513H80.6819L80.7094 10.5909L83.4816 14.8828Z" fill="#232C79"/>
<path d="M89.9314 14.2886C89.3962 14.83 88.71 15.0941 87.914 15.0941C87.1043 15.0941 86.4319 14.83 85.8966 14.2886C85.3614 13.7471 85.0869 13.1001 85.0869 12.3209C85.0869 11.5418 85.3614 10.8947 85.8966 10.3533C86.4319 9.81184 87.1043 9.54773 87.914 9.54773C88.71 9.54773 89.3825 9.81184 89.9314 10.3533C90.4804 10.8947 90.7411 11.5418 90.7411 12.3209C90.7411 13.0868 90.4667 13.7471 89.9314 14.2886ZM86.4181 13.8396C86.8298 14.2357 87.3239 14.4338 87.914 14.4338C88.5041 14.4338 88.9982 14.2357 89.4099 13.8396C89.8216 13.4434 90.0275 12.9284 90.0275 12.3209C90.0275 11.7135 89.8216 11.1984 89.4099 10.8023C88.9982 10.4061 88.5041 10.208 87.914 10.208C87.3239 10.208 86.8298 10.4061 86.4181 10.8023C86.0064 11.1984 85.8006 11.7135 85.8006 12.3209C85.8006 12.9284 86.0064 13.4434 86.4181 13.8396Z" fill="#232C79"/>
<path d="M87.9144 15.1734C87.0909 15.1734 86.391 14.8961 85.8284 14.3414C85.2657 13.7868 84.9912 13.1133 84.9912 12.3078C84.9912 11.5022 85.2794 10.8287 85.8284 10.2741C86.391 9.71946 87.0909 9.44214 87.9144 9.44214C88.7378 9.44214 89.4377 9.71946 90.0004 10.2741C90.5631 10.8287 90.8376 11.5022 90.8376 12.2946C90.8376 13.0869 90.5494 13.7736 90.0004 14.3282C89.4377 14.8961 88.7378 15.1734 87.9144 15.1734ZM87.9144 9.64022C87.1321 9.64022 86.4871 9.90434 85.9656 10.4194C85.4441 10.9344 85.1833 11.5815 85.1833 12.321C85.1833 13.0605 85.4441 13.7076 85.9656 14.2226C86.4871 14.7376 87.1458 15.0017 87.9144 15.0017C88.6966 15.0017 89.3417 14.7376 89.8632 14.2226C90.3847 13.7076 90.6454 13.0605 90.6454 12.321C90.6454 11.5815 90.3847 10.9344 89.8632 10.4194C89.3417 9.90434 88.6829 9.64022 87.9144 9.64022ZM87.9144 14.5263C87.2968 14.5263 86.7753 14.315 86.3499 13.9057C85.9244 13.4963 85.7186 12.9548 85.7186 12.321C85.7186 11.6871 85.9382 11.1457 86.3499 10.7363C86.7753 10.3269 87.2968 10.1156 87.9144 10.1156C88.5319 10.1156 89.0535 10.3269 89.4789 10.7363C89.9043 11.1457 90.1239 11.6871 90.1239 12.321C90.1239 12.9548 89.9043 13.4963 89.4789 13.9057C89.0535 14.315 88.5182 14.5263 87.9144 14.5263ZM86.4734 13.7736C86.8576 14.1566 87.338 14.3414 87.9007 14.3414C88.4633 14.3414 88.9437 14.1434 89.3279 13.7736C89.7122 13.3906 89.9181 12.902 89.9181 12.3078C89.9181 11.7135 89.7259 11.2249 89.3279 10.8419C88.9437 10.459 88.4633 10.2741 87.9007 10.2741C87.338 10.2741 86.8576 10.4722 86.4734 10.8419C86.0891 11.2249 85.8833 11.7135 85.8833 12.3078C85.8833 12.902 86.0891 13.4038 86.4734 13.7736Z" fill="#232C79"/>
</g>
<defs>
<clipPath id="clip0_1_2388">
<rect width="119.644" height="40" fill="white"/>
</clipPath>
</defs>
</svg>
